<svg class="tds-icon tds-icon-help" viewBox="0 0 24 24" xmlns="http://www.w3.org/2000/svg"><path fill="currentColor" d="M12 20.5a8.5 8.5 0 1 1 0-17 8.5 8.5 0 0 1 0 17m0 1.5c5.523 0 10-4.477 10-10S17.523 2 12 2 2 6.477 2 12s4.477 10 10 10m0-6a1 1 0 1 0 0 2 1 1 0 0 0 0-2m.053-3.533a8 8 0 0 1 .92-.767 7 7 0 0 0 .746-.61 2.3 2.3 0 0 0 .468-.635q.189-.38.188-.883 0-.56-.246-1.048-.237-.486-.771-.792-.534-.305-1.362-.305-.862 0-1.411.347a2 2 0 0 0-.788.89q-.09.201-.148.413c-.111.414-.445.767-.874.767-.428 0-.784-.35-.71-.772q.106-.61.386-1.15.452-.875 1.37-1.394Q10.742 6 12.07 6q1.395 0 2.273.544.885.536 1.271 1.337T16 9.489q0 .817-.254 1.403-.255.577-.616.94-.353.363-.943.817-.468.372-.747.635-.27.264-.451.627-.075.149-.113.302c-.108.424-.422.787-.86.787-.437 0-.806-.356-.76-.79a2.95 2.95 0 0 1 .797-1.743"></path></svg>